<?xml version="1.0" encoding="UTF-8"?>
<!-- Generator: visioncortex VTracer 0.6.4 -->
<svg version="1.1" xmlns="http://www.w3.org/2000/svg" width="111" height="105">
<path d="M0 0 C36.63 0 73.26 0 111 0 C111 34.65 111 69.3 111 105 C74.37 105 37.74 105 0 105 C0 70.35 0 35.7 0 0 Z " fill="#F1F0EF" transform="translate(0,0)"/>
<path d="M0 0 C6.76532673 1.78529455 11.65460165 4.49937851 17 9 C13.61567505 16.99312927 9.11288303 22.87677368 3 29 C2.37222656 29.639375 1.74445312 30.27875 1.09765625 30.9375 C-2.73387396 34.56651804 -6.67754183 36.97126555 -11.375 39.375 C-20.49300168 44.09266676 -27.48029198 50.35245744 -33 59 C-37.23429756 57.68938409 -41.07407404 56.05643741 -45 54 C-44.58964938 45.99816299 -39.43170817 40.08870444 -33.8125 34.8125 C-29.7091124 31.31804681 -25.33819823 28.89630117 -20.57421875 26.41796875 C-10.01710183 20.6027435 -4.98326045 10.56186618 0 0 Z " fill="#231E24" transform="translate(50,4)"/>
<path d="M0 0 C3.63 1.65 7.26 3.3 11 5 C10.84594261 12.0866398 7.53045699 16.70568689 3 22 C-0.88380265 25.61899792 -5.29208923 28.18037441 -9.875 30.8125 C-21.71865668 37.85319913 -27.99395085 46.84352553 -34 59 C-39.64913063 57.34292168 -44.26300637 55.52237988 -49 52 C-47.78284845 42.56707545 -43.07858353 34.99324061 -35.80859375 28.94921875 C-31.75817521 26.13814942 -27.44270723 23.89492112 -23.10083008 21.5703125 C-13.69276189 16.38697443 -5.70243392 9.16462595 0 0 Z " fill="#231E24" transform="translate(92,44)"/>
<path d="M0 0 C2.42582366 2.33625479 4.57686219 4.81358339 6.6875 7.4375 C7.31011719 8.19933594 7.93273437 8.96117187 8.57421875 9.74609375 C10 12 10 12 10 16 C8.04669696 18.98962137 5.49435286 21.45445706 3 24 C2.3709375 24.65355469 1.741875 25.30710937 1.09375 25.98046875 C-3.51861324 30.42430333 -8.39768349 33.44226611 -14 36.4375 C-23.8415711 41.72717369 -30.50242734 48.24125656 -36 58 C-36.66 58.99 -37.32 59.98 -38 61 C-39.29454565 59.08527667 -40.58552944 57.16814482 -41.875 55.25 C-42.59429687 54.18265625 -43.31359375 53.1153125 -44.0546875 52.015625 C-45.54507257 49.70522886 -46.85199401 47.48936036 -48 45 C-43.08069514 36.93234003 -37.5205671 32.09191368 -29.25 27.625 C-17.62964077 21.32195687 -9.28766095 14.14153679 -2 3 C-1.34 2.01 -0.68 1.02 0 0 Z " fill="#231E24" transform="translate(73,24)"/>
<path d="M0 0 C1.22589844 0.15275391 1.22589844 0.15275391 2.4765625 0.30859375 C3.41628906 0.43427734 3.41628906 0.43427734 4.375 0.5625 C4.375 1.2225 4.375 1.8825 4.375 2.5625 C0.745 2.5625 -2.885 2.5625 -6.625 2.5625 C-6.625 1.9025 -6.625 1.2425 -6.625 0.5625 C-4.10446405 -0.69776798 -2.7707902 -0.35624445 0 0 Z " fill="#C9DEED" transform="translate(57.625,102.4375)"/>
</svg>
